# xmcd
#
# Track frame offsets:
#	150
#	14611
#	30670
#	45866
#	62657
#	82341
#	95887
#	108408
#	121252
#	133104
#	144797
#	159281
#	176527
#	193031
#	208238
#	220268
#	234190
#	249309
#	264105
#	275916
#	291077
#
# Disc length: 4095 seconds
#
# Revision: 2
# Processed by: cddbd v1.5.2PL0 Copyright (c) Steve Scherf et al.
# Submitted via: EZCDAudioConverter 2.1.7.1
#
DISCID=2f0ffd15
DTITLE=V/A - Titan: It's All Pop! 1/2
DYEAR=2008
DGENRE=
TTITLE0=Secrets - It's Your Heart Tonight
TTITLE1=Boys - Please Change Your Mind
TTITLE2=Gary Charlson - Real Life Saver
TTITLE3=Arlis! - No Way Baby
TTITLE4=Millionaire At Midnight - Coit Tower
TTITLE5=Boys - We're Too Young
TTITLE6=Scott McCarl - I Hope
TTITLE7=Gems - Save Your Money
TTITLE8=Gary Charlson - Not The Way It Seems
TTITLE9=Boys - On A Night Like This
TTITLE10=J.P. McClain and The Intruders - Just Another Pop Song
TTITLE11=Gary Charlson - Brown Eyes
TTITLE12=Secrets - Daddy's Girl
TTITLE13=Bobby Sky - The Water
TTITLE14=Boys - Tell Me It's You
TTITLE15=Arlis! - I Can't Take It
TTITLE16=Gems - Cry
TTITLE17=Secrets - Get Your Radio
TTITLE18=Boys - Bad Little Girl
TTITLE19=Gary Charlson - Close Enough
TTITLE20=Arlis! - Good Friends
EXTD=
EXTT0=
EXTT1=
EXTT2=
EXTT3=
EXTT4=
EXTT5=
EXTT6=
EXTT7=
EXTT8=
EXTT9=
EXTT10=
EXTT11=
EXTT12=
EXTT13=
EXTT14=
EXTT15=
EXTT16=
EXTT17=
EXTT18=
EXTT19=
EXTT20=
PLAYORDER=
